<svg width="35" height="35" viewBox="0 0 35 35" fill="none" xmlns="http://www.w3.org/2000/svg">
<path d="M33.0682 0H1.93181C0.864792 0 0 0.864792 0 1.93181V33.0687C0 34.1352 0.864792 35 1.93181 35H18.6944V21.4462H14.1332V16.1642H18.6944V12.2685C18.6944 7.74764 21.4555 5.28646 25.4883 5.28646C27.4201 5.28646 29.0801 5.42986 29.5643 5.49451V10.219L26.7672 10.2205C24.5739 10.2205 24.1495 11.2627 24.1495 12.792V16.1647H29.3801L28.699 21.4467H24.1495V35H33.0687C34.1352 35 35 34.1352 35 33.0682V1.93181C35 0.864792 34.1352 0 33.0682 0Z" fill="#F9E2E3"/>
</svg>
