<svg width="35" height="36" viewBox="0 0 35 36" fill="none" xmlns="http://www.w3.org/2000/svg">
<path d="M26.231 15.4528C26.231 20.2746 22.3222 24.1834 17.5005 24.1834C12.6788 24.1834 8.76993 20.2746 8.76993 15.4528C8.76993 14.0941 9.0893 12.8132 9.6425 11.667H0V32.0837C0 33.9552 1.53125 35.4864 3.40278 35.4864H31.5972C33.4688 35.4864 35 33.9552 35 32.0837V11.667H25.358C25.9117 12.8132 26.231 14.0941 26.231 15.4528Z" fill="#F9E2E3"/>
<path d="M31.5972 0H3.40278C1.53125 0 0 1.53125 0 3.40278V10.2083H10.5316C12.1251 8.09424 14.649 6.72194 17.5 6.72194C20.351 6.72194 22.8749 8.09424 24.4684 10.2083H35V3.40278C35 1.53125 33.4688 0 31.5972 0ZM2.79806 8.61194H1.53125V3.70465C1.53125 2.84618 2.05431 2.11069 2.79854 1.79812V8.61194H2.79806ZM4.87375 8.61194H3.67354V1.63722H4.87375V8.61194ZM6.94896 8.61194H5.74875V1.63722H6.94896V8.61194ZM9.02271 3.70465V6.54451V8.61194H7.82396V1.63722H9.02271V3.70465ZM33.2262 6.54451C33.2262 7.68687 32.3006 8.61194 31.1597 8.61194H27.8012C26.6598 8.61194 25.7342 7.68687 25.7342 6.54451V3.70465C25.7342 2.56229 26.6598 1.63722 27.8012 1.63722H31.1597C32.3011 1.63722 33.2262 2.56229 33.2262 3.70465V6.54451Z" fill="#F9E2E3"/>
<path d="M17.5006 23.1623C21.7472 23.1623 25.1899 19.7182 25.1899 15.4725C25.1899 11.2263 21.7477 7.78223 17.5006 7.78223C13.2529 7.78223 9.8103 11.2263 9.8103 15.4725C9.8103 19.7177 13.2529 23.1623 17.5006 23.1623ZM17.5001 9.34556C20.8834 9.34556 23.627 12.0887 23.627 15.4725C23.627 18.8558 20.8839 21.5994 17.5001 21.5994C14.1163 21.5994 11.3731 18.8563 11.3731 15.4725C11.3736 12.0882 14.1168 9.34556 17.5001 9.34556Z" fill="#F9E2E3"/>
</svg>
