<svg width="35" height="29" viewBox="0 0 35 29" fill="none" xmlns="http://www.w3.org/2000/svg">
<path d="M35 3.36714C33.7123 3.93803 32.3287 4.32392 30.8761 4.4971C32.3583 3.6085 33.4973 2.20128 34.0328 0.525434C32.6455 1.34813 31.1083 1.94629 29.4734 2.26718C28.1639 0.872694 26.2976 0 24.2322 0C20.2669 0 17.0516 3.21442 17.0516 7.18063C17.0516 7.74288 17.1152 8.2915 17.238 8.81738C11.27 8.51785 5.97931 5.65887 2.43763 1.31404C1.81948 2.37491 1.4654 3.60895 1.4654 4.92435C1.4654 7.41562 2.73308 9.61281 4.65982 10.9009C3.48305 10.8632 2.37582 10.54 1.40767 10.0028C1.40676 10.0328 1.40676 10.0623 1.40676 10.0932C1.40676 13.5713 3.88167 16.4734 7.16609 17.1339C6.56384 17.2971 5.92977 17.3852 5.27479 17.3852C4.81163 17.3852 4.3621 17.3407 3.92348 17.2566C4.83708 20.1088 7.4888 22.1855 10.631 22.2437C8.17332 24.1691 5.07753 25.3177 1.71312 25.3177C1.13359 25.3177 0.562251 25.284 0 25.2172C3.1776 27.2544 6.952 28.4425 11.0068 28.4425C24.2145 28.4425 31.437 17.5016 31.437 8.01378C31.437 7.70288 31.4297 7.39244 31.416 7.08382C32.8201 6.07204 34.0378 4.80709 35 3.36714Z" fill="#F9E2E3"/>
</svg>
