<svg width="35" height="35" viewBox="0 0 35 35" fill="none" xmlns="http://www.w3.org/2000/svg">
<path d="M31.5972 0H3.40278C1.53125 0 0 1.53125 0 3.40278V31.5972C0 33.4688 1.53125 35 3.40278 35H31.5972C33.4688 35 35 33.4688 35 31.5972V3.40278C35 1.53125 33.4688 0 31.5972 0ZM20.6986 5.08958H22.2362V11.3565C22.2362 11.7192 22.2362 11.9073 22.2551 11.9569C22.2892 12.196 22.4097 12.3181 22.6168 12.3181C22.925 12.3181 23.2492 12.0789 23.591 11.5957V5.08958H25.1339V13.6014H23.591V12.6729C22.977 13.3773 22.3912 13.7195 21.8288 13.7195C21.332 13.7195 20.9893 13.5178 20.8352 13.0861C20.7501 12.829 20.6986 12.4211 20.6986 11.8203V5.08958ZM14.8716 7.86431C14.8716 6.95479 15.0267 6.28931 15.3548 5.8591C15.7816 5.27771 16.3824 4.98653 17.1505 4.98653C17.9234 4.98653 18.5233 5.27771 18.9506 5.8591C19.2733 6.28931 19.4294 6.95479 19.4294 7.86431V10.8466C19.4294 11.7508 19.2738 12.4216 18.9506 12.8489C18.5233 13.4288 17.9239 13.72 17.1505 13.72C16.3819 13.72 15.7811 13.4288 15.3548 12.8489C15.0267 12.4216 14.8716 11.7508 14.8716 10.8466V7.86431ZM10.7465 2.17875L11.9612 6.6641L13.1274 2.17875H14.857L12.7998 8.97556V13.6014H11.0887V8.97556C10.9341 8.155 10.5919 6.95431 10.0435 5.36132C9.68285 4.3016 9.30708 3.23701 8.94687 2.17875H10.7465ZM29.6883 29.9046C29.3801 31.2477 28.2805 32.2384 26.9583 32.3857C23.8258 32.7357 20.6558 32.7376 17.5 32.7357C14.3437 32.7376 11.1737 32.7357 8.04174 32.3857C6.71903 32.2379 5.62139 31.2472 5.31271 29.9046C4.87278 27.9912 4.87278 25.9029 4.87278 23.9342C4.87278 21.9635 4.87764 19.8766 5.31806 17.9628C5.62625 16.6201 6.72438 15.6299 8.04708 15.4822C11.1791 15.1312 14.349 15.1302 17.5053 15.1312C20.6612 15.1302 23.8311 15.1312 26.9636 15.4822C28.2853 15.6299 29.3844 16.6201 29.6931 17.9628C30.1331 19.8771 30.1306 21.9635 30.1306 23.9342C30.1311 25.9029 30.1287 27.9912 29.6883 29.9046Z" fill="#F9E2E3"/>
</svg>
